<svg xmlns="http://www.w3.org/2000/svg"  viewBox="0 0 512 512" width="96px" height="96px"><path fill="#EF4823" d="M329.4,384.5c-5.6-8.6-14.9-13.6-24-17.7c-10.6-4.7-21.2-8.3-31.2-14.4c-20.4-12.5-37.9-28-51.5-47.4c-3.1,5.9-5.3,13-7,19.2c-3.6,13.3-5.8,27-6.7,40.7c-0.8,12.7-0.7,26.2,2.6,38.5c2.2,8,6.2,18.1,14.3,20.6c3.6,1.1,4.8,4.6,4.2,7.5c11.8,5.5,25.2,8.3,38,8.9c16.7,0.8,35.5-1.1,49.4-11.2C330.5,419.9,338.9,399.1,329.4,384.5z"/><path fill="#FEBF10" d="M403.4,300.1c-10-22.4-28.6-38.9-43.9-57.5c-14.5-17.7-24.6-37.3-26.2-60c-8.8,2.8-15.2,15-18.6,22c-5.4,10.9-9.4,22.3-12.4,34.1c-1.3,5-7.4,6.2-10.5,2.1c-9.2-11.9-12.1-27.9-13.3-42.5c-1.3-15.8-0.7-31.7-0.4-47.5c0.3-18.6,1.7-36.7,7.5-54.5c5.2-15.8,12.3-30.6,20.2-45.2c-18.8,2.3-35.2,19.3-48.1,31.5c-18.9,17.7-37.7,35.3-53.2,56.1c-17.1,23-29,49.1-38.4,76.2c-9.3,26.8-15.7,55.1-15.8,83.6c0,5.4-5.4,7.8-9.6,4.8c-8.5-5.9-14.3-14.4-16.8-24.5c-1.2-4.8-2-9.7-2.9-14.6c-9.4,17.2-12,38.5-13.2,57.5c-0.7,11.8-0.7,23.6-0.3,35.4c0.2,6.1,0.4,13,1.7,18.3c3.9,16.1,9.5,32.1,16.3,47.2c3.1,7,6.5,14.1,11,20.3c0.9,1.3,1.6,2.2,2.6,3.2c0.4,0.4,2.6,2.1,1.8,1.6c0.2,0.1,0.5,0.3,0.7,0.4c1.1-0.6,2.2-0.9,3.2-0.8c1.3-0.5,2.8-0.4,4.5,0.6c38.1,24.6,86.5,35.2,131.6,32.4c20.9-1.3,41.6-5.3,59.9-15.8c16.7-9.5,31.4-22.2,43-37.4C411.1,391.3,422.3,342.2,403.4,300.1z M344.5,401.1c-0.9,17.6-10.5,33.1-26.2,41.4c-16.3,8.5-34.9,10.7-53,9.4c-17-1.2-34.8-5.5-49.4-14.8c-2.7-1.8-3.3-4.8-2.5-7.2c-16.2-13.6-17-43.1-16.1-62.1c0.8-15.4,2.8-30.8,6.9-45.7c3-10.8,6.6-22.7,14.1-31.3c2.4-2.7,7.2-2.6,9.2,0.6c9.9,15.9,22.3,29.8,37.4,41c7.3,5.4,15,10.2,22.9,14.6c6.4,3.5,13.6,5.6,20.3,8.5C328.1,363.9,345.8,377.3,344.5,401.1z"/><path fill="#010101" d="M412,291.2c-10.2-20.7-27.3-36.5-41.9-54c-15-17.9-25.2-37.5-25.4-61.3c0-2.3-2.3-5.1-4.7-5.3c-15.9-1-26.2,11.8-33.4,24.4c-4.9,8.5-8.6,17.8-11.6,27.3c-3.3-8.9-4.4-18.7-5.1-27.9c-1.1-14.8-0.5-29.7-0.2-44.6c0.3-17.7,2-34.5,7.4-51.4c5.6-17.7,14.7-34.3,23.8-50.5c1.8-3.2-0.5-7.8-4.1-8.3c-25-3.3-45.5,14.5-62.6,30.4c-19.8,18.4-39.6,36.7-56.2,58.1c-18.6,24-31.3,51.1-41.5,79.6c-9,24.9-15.3,50.9-17.1,77.3c-2.1-3.4-3.6-7.2-4.7-11.6c-2.1-8.4-2.7-17-5.6-25.2c-1.4-4-7-5.3-9.8-1.9c-15,18.1-19.8,42.7-22,65.5c-1.2,12.2-1.5,24.4-1.3,36.7c0.1,8-0.1,16.3,1.2,24.2c2.5,15.2,8.1,30.3,13.8,44.6c3.3,8.2,6.9,16.3,11.2,24c3,5.5,6.6,11.4,11.7,15.3c3.5,2.7,7.8,3.9,11.8,2.4c43.8,27.8,100.7,38,151.8,31.2c23.9-3.2,45.6-11.6,65-25.9c18.5-13.6,33.6-31.4,44.6-51.5C427.1,375.7,431,329.6,412,291.2z M383.8,427c-11.7,15.2-26.3,27.9-43,37.4c-18.4,10.4-39,14.4-59.9,15.8c-45.1,2.9-93.5-7.7-131.6-32.4c-1.6-1-3.2-1.1-4.5-0.6c-1-0.1-2.1,0.2-3.2,0.8c-0.3-0.1-0.5-0.3-0.7-0.4c0.9,0.5-1.3-1.2-1.8-1.6c-1-1-1.6-1.9-2.6-3.2c-4.5-6.2-7.9-13.3-11-20.3c-6.8-15.1-12.4-31.1-16.3-47.2c-1.3-5.2-1.4-12.2-1.7-18.3c-0.5-11.8-0.5-23.6,0.3-35.4c1.2-18.9,3.8-40.3,13.2-57.5c0.9,4.9,1.7,9.8,2.9,14.6c2.5,10.1,8.3,18.6,16.8,24.5c4.3,3,9.6,0.6,9.6-4.8c0.1-28.5,6.5-56.7,15.8-83.6c9.4-27,21.2-53.1,38.4-76.2c15.5-20.9,34.3-38.4,53.2-56.1C270.7,70.4,287,53.3,305.9,51c-7.9,14.5-15,29.4-20.2,45.2c-5.9,17.8-7.3,35.9-7.5,54.5c-0.2,15.9-0.9,31.7,0.4,47.5c1.2,14.6,4.1,30.6,13.3,42.5c3.2,4.1,9.2,2.9,10.5-2.1c3-11.7,7-23.2,12.4-34.1c3.5-7,9.9-19.2,18.6-22c1.7,22.7,11.7,42.3,26.2,60c15.3,18.7,33.9,35.2,43.9,57.5C422.3,342.2,411.1,391.3,383.8,427z"/><path fill="#010101" d="M308.2,355.4c-6.7-2.9-13.9-4.9-20.3-8.5c-8-4.4-15.6-9.2-22.9-14.6c-15.1-11.2-27.5-25.1-37.4-41c-2-3.2-6.8-3.3-9.2-0.6c-7.5,8.6-11.1,20.5-14.1,31.3c-4.1,14.9-6.2,30.3-6.9,45.7c-1,19.1-0.2,48.6,16.1,62.1c-0.8,2.5-0.2,5.5,2.5,7.2c14.6,9.3,32.3,13.5,49.4,14.8c18.2,1.3,36.7-0.9,53-9.4c15.7-8.2,25.3-23.7,26.2-41.4C345.8,377.3,328.1,363.9,308.2,355.4z M317.6,429.3c-13.9,10.1-32.7,12-49.4,11.2c-12.9-0.6-26.2-3.4-38-8.9c0.6-2.9-0.6-6.4-4.2-7.5c-8.1-2.5-12.1-12.6-14.3-20.6c-3.3-12.3-3.4-25.8-2.6-38.5c0.8-13.7,3.1-27.4,6.7-40.7c1.7-6.2,3.9-13.3,7-19.2c13.6,19.4,31.1,35,51.5,47.4c10,6.1,20.5,9.7,31.2,14.4c9.2,4,18.4,9.1,24,17.7C338.9,399.1,330.5,419.9,317.6,429.3z"/></svg>